<svg width="62" height="62" viewBox="0 0 62 62" fill="none" xmlns="http://www.w3.org/2000/svg">
<path fill-rule="evenodd" clip-rule="evenodd" d="M23.25 30.9998C28.2358 30.9998 32.2917 26.944 32.2917 21.9582C32.2917 16.9723 28.2358 12.9165 23.25 12.9165C18.2642 12.9165 14.2083 16.9723 14.2083 21.9582C14.2083 26.944 18.2642 30.9998 23.25 30.9998ZM23.25 18.0832C25.3942 18.0832 27.125 19.814 27.125 21.9582C27.125 24.1023 25.3942 25.8332 23.25 25.8332C21.1058 25.8332 19.375 24.1023 19.375 21.9582C19.375 19.814 21.1058 18.0832 23.25 18.0832ZM12.3225 43.9165H23.3792C23.3017 44.3298 23.25 44.769 23.25 45.2082V49.0832H5.16666V45.2082C5.16666 39.189 17.205 36.1665 23.25 36.1665C24.6967 36.1665 26.4792 36.3473 28.365 36.6832C26.5308 37.9232 25.0067 39.4732 24.1283 41.359C23.9862 41.359 23.8377 41.3525 23.6892 41.3461C23.5406 41.3396 23.3921 41.3332 23.25 41.3332C19.2975 41.3332 14.88 42.6248 12.3225 43.9165ZM42.625 37.4582C37.8717 37.4582 28.4167 40.0673 28.4167 45.2082V49.0832H56.8333V45.2082C56.8333 40.0673 47.3783 37.4582 42.625 37.4582ZM49.0833 27.1248C49.0833 29.5532 47.7142 31.6457 45.7508 32.7565C44.8208 33.2732 43.7617 33.5832 42.625 33.5832C41.4883 33.5832 40.4292 33.2732 39.4992 32.7565C37.5358 31.6457 36.1667 29.5532 36.1667 27.1248C36.1667 23.5598 39.06 20.6665 42.625 20.6665C46.19 20.6665 49.0833 23.5598 49.0833 27.1248Z" fill="#FFAC2F"/>
</svg>
