<svg width="18" height="19" viewBox="0 0 18 19" fill="none" xmlns="http://www.w3.org/2000/svg">
<path fill-rule="evenodd" clip-rule="evenodd" d="M0 10.5716V15.9287C0 17.1122 0.89543 18.0716 2 18.0716C3.10457 18.0716 4 17.1122 4 15.9287H14C14 17.1122 14.8954 18.0716 16 18.0716C17.1046 18.0716 18 17.1122 18 15.9287V10.5716C18 9.3881 17.1046 8.42871 16 8.42871V5.21443C16 2.84749 14.2091 0.928711 12 0.928711H6C3.79086 0.928711 2 2.84749 2 5.21443V8.42871C0.89543 8.42871 0 9.3881 0 10.5716ZM6 3.07157C4.89543 3.07157 4 3.967 4 5.07157V8.42871H14V5.07157C14 3.967 13.1046 3.07157 12 3.07157H6ZM3 12.7144C3.55228 12.7144 4 12.2347 4 11.643C4 11.0513 3.55228 10.5716 3 10.5716C2.44772 10.5716 2 11.0513 2 11.643C2 12.2347 2.44772 12.7144 3 12.7144ZM16 11.643C16 12.2347 15.5523 12.7144 15 12.7144C14.4477 12.7144 14 12.2347 14 11.643C14 11.0513 14.4477 10.5716 15 10.5716C15.5523 10.5716 16 11.0513 16 11.643Z" fill="#6665FF"/>
</svg>
