<svg width="48" height="52" viewBox="0 0 48 52" fill="none" xmlns="http://www.w3.org/2000/svg">
<path fill-rule="evenodd" clip-rule="evenodd" d="M46.3717 7.60699C46.5525 7.89116 46.7075 8.17533 46.8367 8.48533C47.095 9.10533 47.25 9.77699 47.25 10.5003V46.667C47.25 47.7262 46.9142 48.7337 46.3717 49.5603C46.01 50.1028 45.5192 50.5937 44.9767 50.9553C44.6925 51.1362 44.4083 51.2912 44.0983 51.4203C43.4783 51.6787 42.8067 51.8337 42.0833 51.8337H5.91667C3.04917 51.8337 0.75 49.5087 0.75 46.667V10.5003C0.75 9.77699 0.905 9.10533 1.16333 8.48533C1.2925 8.17533 1.4475 7.89116 1.62833 7.60699C1.99 7.06449 2.48083 6.57366 3.02333 6.21199C3.85 5.66949 4.83167 5.33366 5.91667 5.33366H8.5V0.166992H13.6667V5.33366H34.3333V0.166992H39.5V5.33366H42.0833C42.8067 5.33366 43.4783 5.48866 44.0983 5.74699C44.4083 5.87616 44.6925 6.03116 44.9767 6.21199C45.5192 6.57366 46.01 7.06449 46.3717 7.60699ZM5.91667 10.5003V46.667H42.0833V10.5003H5.91667ZM24 30.857C18.7558 30.857 8.5 33.647 8.5 40.1053V44.0837H39.5V40.1312C39.5 33.647 29.2442 30.857 24 30.857ZM24 36.0237C20.6158 36.0237 16.25 37.4703 14.4675 38.917H33.5325C31.7758 37.4703 27.3842 36.0237 24 36.0237ZM24 28.5837C28.2625 28.5837 31.75 25.0962 31.75 20.8337C31.75 16.5712 28.2625 13.0837 24 13.0837C19.7375 13.0837 16.25 16.5712 16.25 20.8337C16.25 25.0962 19.7375 28.5837 24 28.5837ZM26.5833 20.8337C26.5833 19.4128 25.4208 18.2503 24 18.2503C22.5792 18.2503 21.4167 19.4128 21.4167 20.8337C21.4167 22.2545 22.5792 23.417 24 23.417C25.4208 23.417 26.5833 22.2545 26.5833 20.8337Z" fill="#FFAC2F"/>
</svg>
