<svg width="19" height="17" viewBox="0 0 19 17" fill="none" xmlns="http://www.w3.org/2000/svg">
<path fill-rule="evenodd" clip-rule="evenodd" d="M9.5 0V3.77778H19V17H0V0H9.5ZM0.899994 15.1115H2.79999V13.2227H0.899994V15.1115ZM2.79999 11.3332H0.899994V9.44434H2.79999V11.3332ZM0.899994 7.55588H2.79999V5.66699H0.899994V7.55588ZM2.79999 3.77854H0.899994V1.88965H2.79999V3.77854ZM4.70001 15.1115H6.60001V13.2227H4.70001V15.1115ZM6.60001 11.3332H4.70001V9.44434H6.60001V11.3332ZM4.70001 7.55588H6.60001V5.66699H4.70001V7.55588ZM6.60001 3.77854H4.70001V1.88965H6.60001V3.77854ZM8.5 15.1114H16.1V5.66699H8.5V7.55588H10.4V9.44477H8.5V11.3337H10.4V13.2225H8.5V15.1114ZM14.2 7.55566H12.3V9.44455H14.2V7.55566ZM12.3 11.333H14.2V13.2219H12.3V11.333Z" fill="#FFAC2F"/>
</svg>
