<svg width="22" height="20" viewBox="0 0 22 20" fill="none" xmlns="http://www.w3.org/2000/svg">
<path d="M16.417 8.91667H15.3337C15.0463 8.91667 14.7708 9.0308 14.5676 9.23397C14.3645 9.43713 14.2503 9.71268 14.2503 10C14.2503 10.2873 14.3645 10.5629 14.5676 10.766C14.7708 10.9692 15.0463 11.0833 15.3337 11.0833H16.417C16.7043 11.0833 16.9799 10.9692 17.183 10.766C17.3862 10.5629 17.5003 10.2873 17.5003 10C17.5003 9.71268 17.3862 9.43713 17.183 9.23397C16.9799 9.0308 16.7043 8.91667 16.417 8.91667ZM16.417 13.25H15.3337C15.0463 13.25 14.7708 13.3641 14.5676 13.5673C14.3645 13.7705 14.2503 14.046 14.2503 14.3333C14.2503 14.6207 14.3645 14.8962 14.5676 15.0994C14.7708 15.3025 15.0463 15.4167 15.3337 15.4167H16.417C16.7043 15.4167 16.9799 15.3025 17.183 15.0994C17.3862 14.8962 17.5003 14.6207 17.5003 14.3333C17.5003 14.046 17.3862 13.7705 17.183 13.5673C16.9799 13.3641 16.7043 13.25 16.417 13.25ZM9.91699 6.75H16.417C16.7043 6.75 16.9799 6.63586 17.183 6.4327C17.3862 6.22953 17.5003 5.95398 17.5003 5.66667C17.5003 5.37935 17.3862 5.1038 17.183 4.90063C16.9799 4.69747 16.7043 4.58333 16.417 4.58333H9.91699C9.62967 4.58333 9.35413 4.69747 9.15096 4.90063C8.9478 5.1038 8.83366 5.37935 8.83366 5.66667C8.83366 5.95398 8.9478 6.22953 9.15096 6.4327C9.35413 6.63586 9.62967 6.75 9.91699 6.75ZM20.7503 0.25H5.58366C5.29634 0.25 5.02079 0.364137 4.81763 0.567301C4.61446 0.770465 4.50033 1.04602 4.50033 1.33333V4.58333H1.25033C0.963008 4.58333 0.687458 4.69747 0.484293 4.90063C0.281129 5.1038 0.166992 5.37935 0.166992 5.66667V16.5C0.166992 17.362 0.509402 18.1886 1.1189 18.7981C1.72839 19.4076 2.55504 19.75 3.41699 19.75H17.5003C18.6496 19.75 19.7518 19.2935 20.5645 18.4808C21.3771 17.6681 21.8337 16.5659 21.8337 15.4167V1.33333C21.8337 1.04602 21.7195 0.770465 21.5164 0.567301C21.3132 0.364137 21.0376 0.25 20.7503 0.25ZM4.50033 16.5C4.50033 16.7873 4.38619 17.0629 4.18302 17.266C3.97986 17.4692 3.70431 17.5833 3.41699 17.5833C3.12967 17.5833 2.85412 17.4692 2.65096 17.266C2.4478 17.0629 2.33366 16.7873 2.33366 16.5V6.75H4.50033V16.5ZM19.667 15.4167C19.667 15.9913 19.4387 16.5424 19.0324 16.9487C18.6261 17.3551 18.075 17.5833 17.5003 17.5833H6.47199C6.59812 17.2359 6.66406 16.8696 6.66699 16.5V2.41667H19.667V15.4167ZM9.91699 11.0833H11.0003C11.2876 11.0833 11.5632 10.9692 11.7664 10.766C11.9695 10.5629 12.0837 10.2873 12.0837 10C12.0837 9.71268 11.9695 9.43713 11.7664 9.23397C11.5632 9.0308 11.2876 8.91667 11.0003 8.91667H9.91699C9.62967 8.91667 9.35413 9.0308 9.15096 9.23397C8.9478 9.43713 8.83366 9.71268 8.83366 10C8.83366 10.2873 8.9478 10.5629 9.15096 10.766C9.35413 10.9692 9.62967 11.0833 9.91699 11.0833ZM9.91699 15.4167H11.0003C11.2876 15.4167 11.5632 15.3025 11.7664 15.0994C11.9695 14.8962 12.0837 14.6207 12.0837 14.3333C12.0837 14.046 11.9695 13.7705 11.7664 13.5673C11.5632 13.3641 11.2876 13.25 11.0003 13.25H9.91699C9.62967 13.25 9.35413 13.3641 9.15096 13.5673C8.9478 13.7705 8.83366 14.046 8.83366 14.3333C8.83366 14.6207 8.9478 14.8962 9.15096 15.0994C9.35413 15.3025 9.62967 15.4167 9.91699 15.4167Z" fill="#6665FF"/>
</svg>
