<svg width="23" height="21" viewBox="0 0 23 21" fill="none" xmlns="http://www.w3.org/2000/svg">
<path fill-rule="evenodd" clip-rule="evenodd" d="M12.3338 13.4424L9.89959 11.037L9.92834 11.0082C11.5958 9.14908 12.7842 7.01199 13.4838 4.75033H16.2917V2.83366H9.58334V0.916992H7.66667V2.83366H0.958336V4.74074H11.6629C11.0208 6.59033 10.005 8.34408 8.625 9.87741C7.73375 8.89033 6.99584 7.80741 6.41125 6.66699H4.49459C5.19417 8.22908 6.1525 9.70491 7.35042 11.037L2.4725 15.8478L3.83334 17.2087L8.625 12.417L11.6054 15.3974L12.3338 13.4424ZM17.7292 8.58398H15.8125L11.5 20.084H13.4167L14.49 17.209H19.0421L20.125 20.084H22.0417L17.7292 8.58398ZM16.7708 11.1426L15.2183 15.2922H18.3233L16.7708 11.1426Z" fill="#FFAC2F"/>
</svg>
