<svg width="46" height="50" viewBox="0 0 46 50" fill="none" xmlns="http://www.w3.org/2000/svg">
<path fill-rule="evenodd" clip-rule="evenodd" d="M30.05 5H40.5C43.25 5 45.5 7.25 45.5 10V45C45.5 47.75 43.25 50 40.5 50H5.5C5.15 50 4.825 49.975 4.5 49.925C3.525 49.725 2.65 49.225 1.975 48.55C1.525 48.075 1.15 47.55 0.9 46.95C0.65 46.35 0.5 45.675 0.5 45V10C0.5 9.3 0.65 8.65 0.9 8.075C1.15 7.475 1.525 6.925 1.975 6.475C2.65 5.8 3.525 5.3 4.5 5.1C4.825 5.025 5.15 5 5.5 5H15.95C17 2.1 19.75 0 23 0C26.25 0 29 2.1 30.05 5ZM10.5 20V15H35.5V20H10.5ZM35.5 30V25H10.5V30H35.5ZM28 35H10.5V40H28V35ZM23 4.375C24.025 4.375 24.875 5.225 24.875 6.25C24.875 7.275 24.025 8.125 23 8.125C21.975 8.125 21.125 7.275 21.125 6.25C21.125 5.225 21.975 4.375 23 4.375ZM5.5 45H40.5V10H5.5V45Z" fill="#444444"/>
</svg>
