<svg width="25" height="23" viewBox="0 0 25 23" fill="none" xmlns="http://www.w3.org/2000/svg">
<path d="M23.75 16H21.2975C21.4285 15.6392 21.497 15.2588 21.5 14.875V9.25C21.5 8.35489 21.1444 7.49645 20.5115 6.86351C19.8786 6.23058 19.0201 5.875 18.125 5.875H11.375C10.4799 5.875 9.62145 6.23058 8.98851 6.86351C8.35558 7.49645 8 8.35489 8 9.25V14.875C8.00304 15.2588 8.07153 15.6392 8.2025 16H6.875C6.57663 16 6.29048 15.8815 6.0795 15.6705C5.86853 15.4595 5.75 15.1734 5.75 14.875V3.625C5.75 2.72989 5.39442 1.87145 4.76149 1.23851C4.12855 0.605579 3.27011 0.25 2.375 0.25H1.25C0.951631 0.25 0.665483 0.368526 0.454505 0.579505C0.243526 0.790483 0.125 1.07663 0.125 1.375C0.125 1.67337 0.243526 1.95952 0.454505 2.1705C0.665483 2.38147 0.951631 2.5 1.25 2.5H2.375C2.67337 2.5 2.95952 2.61853 3.1705 2.8295C3.38147 3.04048 3.5 3.32663 3.5 3.625V14.875C3.50415 15.614 3.75074 16.3312 4.20191 16.9165C4.65309 17.5018 5.2839 17.9229 5.9975 18.115C5.79031 18.6219 5.70957 19.1715 5.76222 19.7166C5.81488 20.2616 5.99937 20.7856 6.29976 21.2435C6.60015 21.7013 7.00742 22.0792 7.48644 22.3444C7.96545 22.6097 8.50183 22.7545 9.04928 22.7662C9.59673 22.778 10.1388 22.6563 10.6288 22.4118C11.1187 22.1673 11.5418 21.8072 11.8615 21.3626C12.1812 20.9181 12.388 20.4025 12.464 19.8602C12.5399 19.3179 12.4828 18.7653 12.2975 18.25H16.0775C15.8925 18.7598 15.833 19.3066 15.9042 19.8442C15.9753 20.3819 16.175 20.8944 16.4862 21.3385C16.7975 21.7826 17.2112 22.1452 17.6923 22.3955C18.1734 22.6458 18.7077 22.7765 19.25 22.7765C19.7923 22.7765 20.3266 22.6458 20.8077 22.3955C21.2888 22.1452 21.7025 21.7826 22.0138 21.3385C22.325 20.8944 22.5247 20.3819 22.5958 19.8442C22.667 19.3066 22.6075 18.7598 22.4225 18.25H23.75C24.0484 18.25 24.3345 18.1315 24.5455 17.9205C24.7565 17.7095 24.875 17.4234 24.875 17.125C24.875 16.8266 24.7565 16.5405 24.5455 16.3295C24.3345 16.1185 24.0484 16 23.75 16ZM9.125 20.5C8.9025 20.5 8.68499 20.434 8.49998 20.3104C8.31498 20.1868 8.17078 20.0111 8.08564 19.8055C8.00049 19.6 7.97821 19.3738 8.02162 19.1555C8.06502 18.9373 8.17217 18.7368 8.3295 18.5795C8.48684 18.4222 8.68729 18.315 8.90552 18.2716C9.12375 18.2282 9.34995 18.2505 9.55552 18.3356C9.76109 18.4208 9.93679 18.565 10.0604 18.75C10.184 18.935 10.25 19.1525 10.25 19.375C10.25 19.6734 10.1315 19.9595 9.9205 20.1705C9.70952 20.3815 9.42337 20.5 9.125 20.5ZM11.375 16C11.0766 16 10.7905 15.8815 10.5795 15.6705C10.3685 15.4595 10.25 15.1734 10.25 14.875V9.25C10.25 8.95163 10.3685 8.66548 10.5795 8.4545C10.7905 8.24353 11.0766 8.125 11.375 8.125H18.125C18.4234 8.125 18.7095 8.24353 18.9205 8.4545C19.1315 8.66548 19.25 8.95163 19.25 9.25V14.875C19.25 15.1734 19.1315 15.4595 18.9205 15.6705C18.7095 15.8815 18.4234 16 18.125 16H11.375ZM19.25 20.5C19.0275 20.5 18.81 20.434 18.625 20.3104C18.44 20.1868 18.2958 20.0111 18.2106 19.8055C18.1255 19.6 18.1032 19.3738 18.1466 19.1555C18.19 18.9373 18.2972 18.7368 18.4545 18.5795C18.6118 18.4222 18.8123 18.315 19.0305 18.2716C19.2488 18.2282 19.475 18.2505 19.6805 18.3356C19.8861 18.4208 20.0618 18.565 20.1854 18.75C20.309 18.935 20.375 19.1525 20.375 19.375C20.375 19.6734 20.2565 19.9595 20.0455 20.1705C19.8345 20.3815 19.5484 20.5 19.25 20.5Z" fill="#6665FF"/>
</svg>
