<svg width="16" height="23" viewBox="0 0 16 23" fill="none" xmlns="http://www.w3.org/2000/svg">
<path fill-rule="evenodd" clip-rule="evenodd" d="M3 9.35707V6.14279C3 3.18412 5.23858 0.785645 8 0.785645C10.7614 0.785645 13 3.18412 13 6.14279V9.35707H14C15.1046 9.35707 16 10.3165 16 11.4999V20.0714C16 21.2548 15.1046 22.2142 14 22.2142H2C0.89543 22.2142 0 21.2548 0 20.0714V11.4999C0 10.3165 0.89543 9.35707 2 9.35707H3ZM11 9.35707V6.14279C11 4.36759 9.65685 2.9285 8 2.9285C6.34315 2.9285 5 4.36759 5 6.14279V9.35707H11Z" fill="#6665FF"/>
</svg>
