<svg width="60" height="60" viewBox="0 0 60 60" fill="none" xmlns="http://www.w3.org/2000/svg">
<path fill-rule="evenodd" clip-rule="evenodd" d="M5 30C5 16.2 16.175 5 29.975 5C43.8 5 55 16.2 55 30C55 43.8 43.8 55 29.975 55C16.175 55 5 43.8 5 30ZM39.925 20H47.3C44.9 15.875 41.075 12.675 36.475 11.1C37.975 13.875 39.125 16.875 39.925 20ZM30 10.1C32.075 13.1 33.7 16.425 34.775 20H25.225C26.3 16.425 27.925 13.1 30 10.1ZM10 30C10 31.725 10.25 33.4 10.65 35H19.1C18.9 33.35 18.75 31.7 18.75 30C18.75 28.3 18.9 26.65 19.1 25H10.65C10.25 26.6 10 28.275 10 30ZM12.7 40H20.075C20.875 43.125 22.025 46.125 23.525 48.9C18.925 47.325 15.1 44.15 12.7 40ZM12.7 20H20.075C20.875 16.875 22.025 13.875 23.525 11.1C18.925 12.675 15.1 15.85 12.7 20ZM30 49.9C27.925 46.9 26.3 43.575 25.225 40H34.775C33.7 43.575 32.075 46.9 30 49.9ZM23.75 30C23.75 31.7 23.925 33.35 24.15 35H35.85C36.075 33.35 36.25 31.7 36.25 30C36.25 28.3 36.075 26.625 35.85 25H24.15C23.925 26.625 23.75 28.3 23.75 30ZM36.475 48.9C37.975 46.125 39.125 43.125 39.925 40H47.3C44.9 44.125 41.075 47.325 36.475 48.9ZM41.25 30C41.25 31.7 41.1 33.35 40.9 35H49.35C49.75 33.4 50 31.725 50 30C50 28.275 49.75 26.6 49.35 25H40.9C41.1 26.65 41.25 28.3 41.25 30Z" fill="#444444"/>
</svg>
