<?xml version="1.0" standalone="no"?>
<!DOCTYPE svg PUBLIC "-//W3C//DTD SVG 20010904//EN"
 "http://www.w3.org/TR/2001/REC-SVG-20010904/DTD/svg10.dtd">
<svg version="1.0" xmlns="http://www.w3.org/2000/svg"
 width="555.000000pt" height="254.000000pt" viewBox="0 0 555.000000 254.000000"
 preserveAspectRatio="xMidYMid meet">

<g transform="translate(0.000000,254.000000) scale(0.100000,-0.100000)"
fill="#000000" stroke="none">
<path d="M4120 2514 c-338 -91 -545 -432 -461 -764 33 -132 73 -202 171 -301
140 -141 282 -196 484 -187 338 16 596 285 599 623 1 121 -13 184 -65 294 -76
160 -237 290 -414 335 -78 20 -240 20 -314 0z m285 -345 c67 -32 130 -99 155
-167 74 -195 -72 -407 -280 -406 -82 0 -127 15 -189 64 -70 55 -111 141 -111
230 0 78 12 118 52 177 81 120 241 164 373 102z"/>
<path d="M141 2315 c-80 -25 -131 -92 -131 -172 0 -70 33 -122 95 -153 l50
-25 1520 -3 c1688 -3 1572 -7 1634 63 82 94 58 219 -54 275 l-50 25 -1510 2
c-1256 2 -1517 0 -1554 -12z"/>
<path d="M2038 1410 c-46 -14 -85 -48 -107 -93 -26 -53 -26 -99 -2 -152 22
-48 44 -69 96 -91 36 -15 108 -16 729 -15 660 2 690 3 727 21 122 63 132 232
18 307 l-43 28 -695 2 c-383 1 -708 -2 -723 -7z"/>
<path d="M3995 940 c-263 -40 -522 -124 -700 -228 -103 -61 -213 -168 -251
-247 -29 -59 -29 -62 -32 -262 l-4 -203 1267 0 1266 0 -3 213 -3 212 -30 54
c-82 149 -275 276 -562 370 -317 104 -650 136 -948 91z m443 -321 c270 -29
614 -146 732 -248 l35 -30 -925 0 -925 0 39 34 c82 73 323 168 541 214 187 40
336 49 503 30z"/>
<path d="M1285 555 c-5 -2 -22 -6 -37 -9 -37 -8 -98 -63 -114 -103 -30 -71
-11 -147 49 -200 20 -18 53 -37 74 -42 52 -15 1184 -15 1236 0 132 36 180 196
89 292 -61 65 -28 62 -687 64 -330 1 -604 0 -610 -2z"/>
</g>
</svg>
