<svg width="19" height="19" viewBox="0 0 19 19" fill="none" xmlns="http://www.w3.org/2000/svg">
<path fill-rule="evenodd" clip-rule="evenodd" d="M9.50001 0C6.87564 0 4.75001 2.12561 4.75001 4.74996C4.75001 7.37431 6.87564 9.49992 9.50001 9.49992C12.1244 9.49992 14.25 7.37431 14.25 4.74996C14.25 2.12561 12.1244 0 9.50001 0ZM11.875 4.74998C11.875 3.44374 10.8063 2.375 9.5 2.375C8.19375 2.375 7.125 3.44374 7.125 4.74998C7.125 6.05622 8.19375 7.12496 9.5 7.12496C10.8063 7.12496 11.875 6.05622 11.875 4.74998ZM16.625 16.625C16.3875 15.7819 12.7063 14.25 9.5 14.25C6.30563 14.25 2.64812 15.77 2.375 16.625H16.625ZM0 16.625C0 13.4663 6.32937 11.8751 9.5 11.8751C12.6706 11.8751 19 13.4663 19 16.625V19H0V16.625Z" fill="#FFAC2F"/>
</svg>
