<svg width="15" height="15" viewBox="0 0 15 15" fill="none" xmlns="http://www.w3.org/2000/svg">
<path fill-rule="evenodd" clip-rule="evenodd" d="M8.09101 8.09125V12.2287C8.09101 12.5551 7.82638 12.8197 7.49995 12.8197C7.17352 12.8197 6.90889 12.5551 6.90889 12.2287V8.09125H2.77148C2.44505 8.09125 2.18042 7.82663 2.18042 7.50019C2.18042 7.17376 2.44505 6.90913 2.77148 6.90913H6.90889V2.77172C6.90889 2.44529 7.17352 2.18066 7.49995 2.18066C7.82638 2.18066 8.09101 2.44529 8.09101 2.77172V6.90913H12.2284C12.5549 6.90913 12.8195 7.17376 12.8195 7.50019C12.8195 7.82663 12.5549 8.09125 12.2284 8.09125H8.09101Z" fill="white"/>
</svg>
