<svg width="20" height="23" viewBox="0 0 20 23" fill="none" xmlns="http://www.w3.org/2000/svg">
<path d="M19.9999 16.771V19.9853C20.0011 20.2837 19.944 20.579 19.8324 20.8524C19.7209 21.1258 19.5572 21.3712 19.352 21.573C19.1468 21.7747 18.9045 21.9283 18.6407 22.0239C18.3769 22.1195 18.0973 22.155 17.8199 22.1281C14.7428 21.7699 11.7869 20.6433 9.18993 18.8388C6.77376 17.1938 4.72527 14.999 3.18993 12.4103C1.49991 9.61512 0.448176 6.43275 0.119933 3.12097C0.0949436 2.82469 0.127808 2.52607 0.216434 2.24414C0.305059 1.96221 0.447504 1.70314 0.634699 1.48343C0.821894 1.26371 1.04974 1.08816 1.30372 0.967962C1.55771 0.847761 1.83227 0.78554 2.10993 0.78526H5.10993C5.59524 0.780143 6.06572 0.964273 6.43369 1.30333C6.80166 1.64239 7.04201 2.11324 7.10993 2.62812C7.23656 3.65676 7.47138 4.66675 7.80993 5.63883C7.94448 6.02232 7.9736 6.4391 7.89384 6.83977C7.81408 7.24045 7.6288 7.60824 7.35993 7.89955L6.08993 9.26026C7.51349 11.9426 9.58639 14.1636 12.0899 15.6888L13.3599 14.3281C13.6318 14.04 13.9751 13.8415 14.3491 13.7561C14.723 13.6706 15.112 13.7018 15.4699 13.846C16.3772 14.2087 17.3199 14.4603 18.2799 14.596C18.7657 14.6694 19.2093 14.9316 19.5265 15.3326C19.8436 15.7336 20.0121 16.2455 19.9999 16.771Z" fill="#6665FF"/>
</svg>
