<svg width="50" height="50" viewBox="0 0 50 50" fill="none" xmlns="http://www.w3.org/2000/svg">
<path fill-rule="evenodd" clip-rule="evenodd" d="M24.9997 4.88525L36.7913 16.6561C40.0413 19.9061 41.6663 24.2394 41.6663 28.4061C41.6663 32.5728 40.0413 36.9686 36.7913 40.2186C33.5413 43.4686 29.2705 45.1144 24.9997 45.1144C20.7288 45.1144 16.458 43.4686 13.208 40.2186C9.95801 36.9686 8.33301 32.5728 8.33301 28.4061C8.33301 24.2394 9.95801 19.9061 13.208 16.6561L24.9997 4.88525ZM16.1663 19.9894C13.7913 22.3436 12.5205 24.9894 12.4997 29.1561H37.4997C37.4788 24.9894 36.208 22.4269 33.833 20.0936L24.9997 10.9686L16.1663 19.9894Z" fill="#444444"/>
</svg>
