<?xml version="1.0" standalone="no"?>
<!DOCTYPE svg PUBLIC "-//W3C//DTD SVG 20010904//EN"
 "http://www.w3.org/TR/2001/REC-SVG-20010904/DTD/svg10.dtd">
<svg version="1.0" xmlns="http://www.w3.org/2000/svg"
 width="388.000000pt" height="351.000000pt" viewBox="0 0 388.000000 351.000000"
 preserveAspectRatio="xMidYMid meet">
<metadata>
Created by potrace 1.16, written by Peter Selinger 2001-2019
</metadata>
<g transform="translate(0.000000,351.000000) scale(0.100000,-0.100000)"
fill="#000000" stroke="none">
<path d="M1511 3494 c-184 -49 -318 -195 -340 -369 -5 -38 -7 -73 -4 -77 7
-13 1153 -10 1153 2 0 6 -18 30 -39 53 -39 41 -39 41 -127 47 l-88 5 -6 31
c-21 100 -117 212 -232 268 -114 56 -212 68 -317 40z"/>
<path d="M1165 2928 c2 -18 7 -55 10 -82 15 -142 132 -271 293 -325 111 -38
275 -25 387 29 63 30 146 108 178 167 28 53 57 157 57 211 l0 32 -464 0 -465
0 4 -32z"/>
<path d="M1136 2356 c-78 -29 -139 -112 -171 -236 -9 -34 -38 -182 -66 -329
-27 -146 -51 -274 -53 -283 -3 -13 11 -22 63 -39 278 -91 487 -312 552 -584
22 -96 27 -249 9 -350 -19 -115 -32 -105 138 -105 199 1 341 14 381 34 20 11
39 32 47 53 19 45 40 283 59 678 8 171 16 323 17 338 3 23 25 -9 130 -185 190
-320 268 -462 268 -486 0 -11 11 -13 53 -9 57 6 323 23 562 36 177 9 197 17
256 99 23 31 70 89 104 127 68 77 115 138 115 148 0 4 -175 7 -389 7 l-389 0
-132 293 c-73 160 -161 353 -195 427 -35 74 -74 160 -88 191 -30 68 -86 133
-141 162 -40 22 -48 22 -566 24 -430 2 -532 0 -564 -11z"/>
<path d="M2914 2360 c-54 -22 -54 -18 -54 -503 l0 -449 29 -29 29 -29 441 0
c267 0 450 4 466 10 53 20 55 41 55 498 0 281 -4 429 -11 451 -21 61 -23 61
-501 60 -238 0 -443 -4 -454 -9z m636 -295 l0 -65 -180 0 -180 0 0 65 0 65
180 0 180 0 0 -65z"/>
<path d="M530 1360 c-262 -68 -434 -245 -511 -527 -38 -137 -9 -319 74 -477
40 -75 157 -192 250 -250 200 -124 448 -139 652 -40 227 110 365 338 382 629
7 122 -8 187 -69 310 l-44 86 -44 -30 c-54 -36 -496 -490 -563 -578 -49 -65
-113 -123 -134 -123 -7 0 -17 19 -23 41 -6 23 -34 94 -62 158 -28 64 -59 140
-69 170 l-19 54 36 34 c20 18 53 42 74 53 l38 19 7 -27 c12 -51 90 -241 99
-242 5 0 50 40 100 88 50 49 138 129 196 179 130 112 270 258 270 283 0 27
-82 103 -150 139 -132 71 -333 91 -490 51z"/>
</g>
</svg>
