<?xml version="1.0" standalone="no"?>
<!DOCTYPE svg PUBLIC "-//W3C//DTD SVG 20010904//EN"
 "http://www.w3.org/TR/2001/REC-SVG-20010904/DTD/svg10.dtd">
<svg version="1.0" xmlns="http://www.w3.org/2000/svg"
 width="308.000000pt" height="345.000000pt" viewBox="0 0 308.000000 345.000000"
 preserveAspectRatio="xMidYMid meet">
<metadata>
Created by potrace 1.16, written by Peter Selinger 2001-2019
</metadata>
<g transform="translate(0.000000,345.000000) scale(0.100000,-0.100000)"
fill="#000000" stroke="none">
<path d="M1280 3152 l0 -299 -81 24 c-137 39 -195 28 -225 -43 -34 -81 -40
-68 410 -779 146 -230 150 -235 170 -215 30 33 505 791 551 881 24 45 12 113
-25 151 -24 23 -37 28 -78 28 -28 0 -79 -9 -114 -20 -34 -11 -69 -20 -75 -20
-10 0 -13 66 -13 295 l0 295 -260 0 -260 0 0 -298z"/>
<path d="M855 2084 c-171 -63 -350 -130 -400 -149 l-90 -35 -185 -184 c-101
-102 -181 -188 -178 -192 4 -3 129 -51 280 -106 719 -262 873 -318 881 -318
14 0 233 208 307 291 l67 77 184 -184 c101 -101 189 -184 195 -184 5 0 116 39
245 86 129 47 276 101 327 120 l92 33 0 -413 0 -413 -322 -118 c-178 -64 -400
-146 -494 -181 -94 -34 -183 -66 -197 -69 l-27 -7 0 603 0 604 -174 -174 -175
-174 -363 133 c-200 73 -384 141 -411 151 l-47 19 2 -441 3 -440 569 -210
c314 -115 581 -209 595 -209 14 0 278 92 586 205 308 113 566 208 573 210 9 3
12 110 12 489 0 452 1 484 18 491 9 3 87 31 172 62 85 30 162 59 170 63 12 7
-26 49 -164 189 -103 103 -197 189 -220 200 -23 12 -209 82 -415 157 -359 131
-375 136 -388 118 -19 -25 -55 -95 -51 -98 2 -2 143 -54 313 -116 171 -62 323
-118 338 -125 28 -11 27 -12 -40 -38 -37 -15 -167 -62 -288 -106 -121 -43
-309 -112 -417 -152 l-197 -72 -433 158 c-238 87 -457 167 -487 178 -37 13
-49 22 -40 27 8 4 160 61 339 125 179 65 327 119 329 121 7 6 -63 114 -74 113
-5 0 -149 -52 -320 -115z"/>
</g>
</svg>
