<?xml version="1.0" standalone="no"?>
<!DOCTYPE svg PUBLIC "-//W3C//DTD SVG 20010904//EN"
 "http://www.w3.org/TR/2001/REC-SVG-20010904/DTD/svg10.dtd">
<svg version="1.0" xmlns="http://www.w3.org/2000/svg"
 width="323.000000pt" height="363.000000pt" viewBox="0 0 323.000000 363.000000"
 preserveAspectRatio="xMidYMid meet">
<metadata>
Created by potrace 1.16, written by Peter Selinger 2001-2019
</metadata>
<g transform="translate(0.000000,363.000000) scale(0.100000,-0.100000)"
fill="#000000" stroke="none">
<path d="M1588 3603 c-17 -21 -87 -133 -125 -200 -14 -25 -40 -66 -59 -90 -19
-25 -53 -77 -76 -116 -23 -40 -67 -110 -98 -157 -68 -102 -146 -234 -186 -312
-16 -32 -32 -58 -36 -58 -11 0 -10 -68 1 -75 5 -3 12 -19 16 -35 16 -71 88
-86 230 -50 43 11 80 20 81 20 2 0 5 -138 6 -307 l3 -308 275 0 275 0 3 308
c1 169 5 307 7 307 3 0 38 -9 77 -20 103 -28 172 -27 204 5 13 13 27 38 30 55
4 17 11 33 15 36 17 10 9 44 -26 103 -19 32 -35 62 -35 65 0 7 -94 161 -172
281 -36 55 -86 136 -113 180 -26 44 -53 85 -59 90 -7 6 -32 44 -56 85 -120
205 -147 234 -182 193z"/>
<path d="M1200 2300 c-102 -33 -455 -162 -464 -169 -6 -5 -67 -28 -136 -51
-221 -76 -213 -70 -416 -277 -101 -102 -184 -192 -184 -199 0 -13 59 -38 195
-82 44 -14 82 -29 85 -33 3 -4 129 -50 280 -103 151 -53 293 -105 315 -116 59
-28 305 -112 340 -116 27 -4 44 10 165 128 75 73 158 159 186 192 l51 59 189
-192 c105 -106 197 -191 207 -191 22 0 317 103 372 130 42 20 299 110 316 110
5 0 9 -167 9 -424 l0 -423 -137 -48 c-76 -26 -147 -53 -158 -60 -11 -6 -67
-28 -125 -48 -294 -101 -425 -148 -468 -168 -40 -18 -179 -69 -189 -69 -2 0
-3 281 -3 624 0 422 -3 627 -10 631 -6 4 -92 -75 -192 -174 -151 -152 -184
-180 -202 -175 -11 4 -23 10 -26 14 -3 4 -131 51 -285 105 -154 54 -285 101
-291 106 -19 15 -232 88 -238 82 -3 -4 -6 -212 -6 -463 l0 -456 37 -18 c40
-19 204 -79 418 -153 71 -24 152 -55 180 -67 100 -46 572 -206 607 -206 20 0
67 12 104 26 38 14 87 32 109 39 97 32 356 125 396 143 39 18 225 84 484 174
50 17 92 34 95 38 3 4 15 10 28 14 l22 7 0 505 c0 472 1 505 18 511 9 3 33 13
52 21 19 9 94 36 165 61 106 38 131 50 133 67 2 16 -43 67 -175 201 -99 99
-194 188 -212 198 -18 9 -99 39 -179 66 -81 28 -151 54 -157 59 -14 12 -492
180 -511 180 -13 0 -74 -94 -74 -116 0 -5 33 -20 73 -33 39 -13 78 -28 84 -33
7 -6 130 -51 274 -102 143 -50 260 -96 259 -101 -2 -13 -48 -31 -320 -125
-124 -43 -256 -91 -295 -107 -38 -17 -139 -53 -222 -82 l-153 -53 -192 67
c-106 37 -206 74 -222 82 -25 13 -160 61 -461 165 -150 52 -143 48 -122 59 10
6 122 46 250 90 128 44 255 90 282 103 28 13 76 32 108 42 31 10 57 22 57 28
0 22 -65 116 -80 115 -8 0 -26 -4 -40 -9z"/>
<path d="M2548 712 l-48 -16 0 -69 0 -70 33 6 c17 3 44 10 60 16 26 10 27 13
27 81 0 78 2 77 -72 52z"/>
<path d="M2383 649 l-43 -21 0 -65 0 -65 33 7 c17 4 47 13 65 21 32 13 32 14
32 78 0 62 -1 66 -22 66 -13 0 -42 -9 -65 -21z"/>
<path d="M2228 591 l-48 -16 0 -64 0 -64 38 6 c20 3 49 10 65 16 26 10 27 14
27 76 0 74 0 74 -82 46z"/>
</g>
</svg>
