<?xml version="1.0" standalone="no"?>
<!DOCTYPE svg PUBLIC "-//W3C//DTD SVG 20010904//EN"
 "http://www.w3.org/TR/2001/REC-SVG-20010904/DTD/svg10.dtd">
<svg version="1.0" xmlns="http://www.w3.org/2000/svg"
 width="505.000000pt" height="323.000000pt" viewBox="0 0 505.000000 323.000000"
 preserveAspectRatio="xMidYMid meet">
<metadata>
Created by potrace 1.16, written by Peter Selinger 2001-2019
</metadata>
<g transform="translate(0.000000,323.000000) scale(0.100000,-0.100000)"
fill="#000000" stroke="none">
<path d="M180 2151 l0 -1080 -40 -11 c-46 -12 -104 -59 -126 -101 -18 -36 -18
-151 0 -187 19 -37 55 -68 96 -85 48 -20 164 -30 253 -22 l74 7 15 47 c24 77
97 192 162 257 259 259 676 257 933 -4 70 -70 143 -187 163 -257 l13 -45 848
0 849 0 -2 1177 c-3 1175 -3 1178 -24 1224 -28 59 -84 113 -142 136 -45 17
-127 18 -1559 21 l-1513 2 0 -1079z"/>
<path d="M3610 1715 c0 -415 2 -755 4 -755 2 0 23 17 45 38 64 59 174 120 268
147 101 30 222 33 323 10 222 -52 413 -231 486 -453 l17 -54 124 4 c122 3 125
4 149 31 l24 28 0 441 c0 422 -1 445 -22 532 -29 116 -155 373 -268 546 -99
151 -130 185 -195 216 l-50 24 -452 0 -453 0 0 -755z m890 562 c41 -32 180
-249 251 -388 l29 -59 -445 0 -445 0 0 230 0 230 298 0 c218 -1 301 -4 312
-13z"/>
<path d="M963 1005 c-227 -49 -393 -259 -393 -494 0 -145 46 -256 147 -359
104 -106 214 -152 363 -152 147 0 251 43 360 150 248 242 178 666 -134 814
-118 56 -218 68 -343 41z m215 -294 c80 -41 126 -116 127 -207 0 -78 -38 -145
-109 -188 -104 -65 -234 -36 -303 67 -41 61 -50 119 -29 189 16 56 64 113 121
142 43 23 146 21 193 -3z"/>
<path d="M3980 1004 c-258 -68 -416 -301 -382 -563 26 -206 185 -385 382 -430
65 -15 187 -13 253 4 172 45 318 189 363 359 33 123 11 284 -53 395 -109 188
-354 290 -563 235z m213 -288 c18 -7 47 -28 65 -46 94 -94 95 -228 2 -320
-133 -134 -349 -61 -384 130 -15 83 48 194 129 231 48 22 142 25 188 5z"/>
</g>
</svg>
