<?xml version="1.0" standalone="no"?>
<!DOCTYPE svg PUBLIC "-//W3C//DTD SVG 20010904//EN"
 "http://www.w3.org/TR/2001/REC-SVG-20010904/DTD/svg10.dtd">
<svg version="1.0" xmlns="http://www.w3.org/2000/svg"
 width="401.000000pt" height="345.000000pt" viewBox="0 0 401.000000 345.000000"
 preserveAspectRatio="xMidYMid meet">
<metadata>
Created by potrace 1.16, written by Peter Selinger 2001-2019
</metadata>
<g transform="translate(0.000000,345.000000) scale(0.100000,-0.100000)"
fill="#000000" stroke="none">
<path d="M1852 3431 c-134 -46 -192 -154 -192 -358 0 -67 8 -81 63 -110 18 -9
155 -87 304 -174 150 -88 277 -159 283 -159 5 0 10 8 10 18 0 9 9 46 20 80 11
35 20 72 20 82 0 12 -30 35 -90 69 -50 29 -95 61 -100 71 -6 10 -10 55 -10 99
0 69 3 82 19 91 13 6 73 8 170 3 175 -7 176 -6 112 73 -51 64 -155 148 -222
179 -126 57 -284 72 -387 36z"/>
<path d="M2200 3031 l0 -80 56 -31 c30 -18 57 -31 58 -29 11 13 26 108 26 158
l0 61 -70 0 -70 0 0 -79z"/>
<path d="M1741 2893 c18 -48 79 -113 131 -139 56 -28 208 -48 194 -26 -12 19
-310 192 -330 192 -3 0 -1 -12 5 -27z"/>
<path d="M1600 2737 c-140 -39 -231 -173 -288 -422 -65 -283 -52 -606 30 -743
20 -33 81 -75 140 -94 19 -7 150 -14 315 -17 l281 -6 -70 -280 c-38 -154 -73
-302 -77 -329 -21 -128 45 -208 176 -210 68 -1 101 16 139 72 23 33 221 813
231 910 4 31 1 68 -7 91 -12 38 -14 39 -70 45 -32 4 -104 20 -161 36 -97 28
-115 30 -277 30 l-174 0 7 100 8 99 -74 80 c-122 131 -209 294 -209 392 0 44
4 55 33 84 58 58 138 64 200 15 14 -11 35 -45 47 -76 30 -82 49 -114 65 -114
12 0 15 18 15 93 0 80 -4 100 -26 146 -16 32 -41 62 -63 76 -45 30 -129 40
-191 22z"/>
<path d="M24 2605 l-24 -25 2 -546 3 -546 24 -19 c22 -18 47 -19 577 -19 526
0 555 1 573 19 25 25 29 136 27 676 -1 394 -3 433 -19 458 l-17 27 -561 0
-560 0 -25 -25z"/>
<path d="M1623 2593 c-12 -2 -34 -18 -48 -34 -40 -49 -35 -107 21 -218 100
-201 240 -344 432 -440 91 -46 257 -99 349 -112 95 -14 130 -1 158 57 32 69
-2 144 -73 160 -201 43 -320 88 -428 161 -103 70 -170 155 -253 321 -34 68
-48 86 -76 98 -35 14 -42 15 -82 7z"/>
<path d="M3145 2229 c-43 -12 -112 -74 -138 -123 -16 -31 -21 -59 -22 -111 0
-60 4 -78 31 -125 45 -79 105 -115 193 -115 l66 0 25 50 c23 46 25 61 25 185
0 145 -17 220 -55 240 -22 12 -83 12 -125 -1z"/>
<path d="M2613 2080 c-51 -22 -97 -40 -103 -40 -17 0 -12 -11 25 -52 20 -21
38 -52 42 -68 3 -17 7 -30 9 -30 2 0 27 9 55 20 29 12 55 17 59 13 4 -4 77
-215 163 -468 204 -601 198 -585 213 -585 8 0 14 6 14 13 1 13 101 83 169 117
52 26 158 50 222 50 64 0 192 -34 266 -71 70 -36 166 -117 189 -161 12 -23 21
-29 42 -26 100 11 -72 250 -239 332 -84 41 -172 66 -239 67 -82 2 -90 8 -117
82 -59 164 -176 299 -343 398 l-95 55 -56 168 c-31 92 -65 180 -76 194 -32 43
-88 41 -200 -8z"/>
<path d="M356 1338 c-12 -17 -16 -49 -16 -133 0 -118 12 -155 49 -155 17 0 12
-20 -41 -172 -67 -195 -104 -336 -114 -438 l-7 -70 141 0 142 0 -1 102 c-1
120 20 199 76 293 155 259 468 354 735 223 45 -22 90 -56 146 -112 121 -121
164 -228 165 -408 l1 -98 650 0 c589 0 650 1 644 16 -3 9 -6 53 -6 100 l0 84
-517 2 -518 3 -27 57 c-33 67 -85 261 -94 353 -6 60 -5 68 15 87 21 19 22 27
19 138 -2 80 -7 122 -17 133 -12 16 -75 17 -712 17 l-698 0 -15 -22z"/>
<path d="M972 959 c-135 -23 -272 -130 -339 -266 -33 -67 -38 -86 -41 -167 -7
-167 26 -270 121 -372 101 -109 227 -159 386 -152 83 3 106 8 165 36 99 46
159 95 206 164 62 93 83 176 78 307 -3 100 -6 112 -41 183 -101 206 -302 306
-535 267z m186 -310 c102 -50 133 -192 60 -284 -54 -69 -174 -90 -246 -43
-103 68 -120 193 -39 285 58 65 143 81 225 42z"/>
<path d="M3410 960 c-162 -28 -306 -135 -372 -276 -55 -118 -51 -291 11 -420
78 -163 245 -264 436 -264 188 0 342 93 429 260 99 190 64 415 -88 565 -117
116 -260 162 -416 135z m166 -315 c76 -44 114 -158 80 -239 -20 -47 -81 -93
-143 -107 -50 -12 -56 -11 -110 17 -49 25 -62 38 -87 86 -24 48 -27 64 -22
101 20 133 169 208 282 142z"/>
</g>
</svg>
