<?xml version="1.0" standalone="no"?>
<!DOCTYPE svg PUBLIC "-//W3C//DTD SVG 20010904//EN"
 "http://www.w3.org/TR/2001/REC-SVG-20010904/DTD/svg10.dtd">
<svg version="1.0" xmlns="http://www.w3.org/2000/svg"
 width="357.000000pt" height="357.000000pt" viewBox="0 0 357.000000 357.000000"
 preserveAspectRatio="xMidYMid meet">
<metadata>
Created by potrace 1.16, written by Peter Selinger 2001-2019
</metadata>
<g transform="translate(0.000000,357.000000) scale(0.100000,-0.100000)"
fill="#000000" stroke="none">
<path d="M243 3556 c-96 -31 -169 -92 -215 -179 -20 -36 -23 -57 -23 -147 0
-95 3 -110 27 -156 15 -28 50 -72 78 -97 66 -59 131 -82 235 -81 100 0 158 26
232 101 71 72 96 140 91 248 -4 90 -25 145 -83 213 -75 87 -235 133 -342 98z"/>
<path d="M3170 3559 c-115 -22 -211 -102 -251 -208 -17 -45 -20 -71 -17 -136
8 -135 69 -229 186 -287 59 -29 76 -33 147 -33 66 0 90 5 141 28 73 34 135 94
166 162 19 41 23 67 23 145 0 82 -4 103 -26 150 -47 98 -120 156 -227 179 -60
12 -78 12 -142 0z"/>
<path d="M280 2791 c-85 -18 -169 -82 -204 -156 -31 -66 -38 -180 -34 -623 5
-489 4 -483 91 -578 l50 -55 -7 -384 c-4 -212 -4 -501 0 -642 l7 -257 36 -39
c59 -62 148 -69 215 -16 58 45 56 22 56 716 l0 638 33 26 c18 14 46 50 62 80
l30 54 3 301 3 301 62 -33 c106 -56 204 -78 347 -79 147 0 220 18 265 65 25
26 30 40 33 93 4 76 -19 120 -75 144 -33 13 -52 14 -145 3 -60 -7 -129 -10
-155 -6 -113 15 -220 96 -338 256 -106 143 -157 182 -255 193 -25 3 -61 2 -80
-2z"/>
<path d="M3168 2786 c-76 -21 -114 -56 -224 -203 -127 -171 -224 -234 -363
-237 -42 0 -110 3 -152 8 -64 7 -82 6 -112 -9 -50 -23 -77 -70 -77 -131 0 -94
55 -142 185 -165 152 -26 387 18 497 93 l27 18 3 -302 c3 -294 4 -304 26 -346
13 -24 41 -60 62 -81 l40 -39 0 -639 0 -640 23 -33 c66 -99 213 -98 272 2 18
32 19 56 20 670 l0 637 41 43 c93 96 96 119 92 678 -4 404 -6 460 -22 501 -49
132 -204 212 -338 175z"/>
<path d="M1081 2749 c-84 -16 -103 -54 -99 -199 l3 -105 140 0 c117 0 146 -3
178 -19 50 -25 94 -80 112 -140 19 -62 19 -80 -1 -145 -34 -116 -141 -176
-336 -188 l-98 -6 0 -59 c0 -33 7 -72 15 -88 31 -59 36 -60 465 -60 407 0 418
1 452 44 16 19 18 59 18 459 0 282 -4 445 -10 458 -22 41 -67 53 -218 57 -175
5 -177 5 -169 -88 7 -90 0 -100 -72 -100 -77 0 -86 11 -77 94 9 93 4 96 -142
95 -64 -1 -137 -5 -161 -10z"/>
</g>
</svg>
